HIERARCHY
ROOT Hips
{
	OFFSET -3.958830 18.904000 13.208200
	CHANNELS 6 Xposition Yposition Zposition Zrotation Yrotation Xrotation 
	JOINT LHipJoint
	{
		OFFSET 0.000000 0.000000 0.000000
		CHANNELS 3 Zrotation Yrotation Xrotation
		JOINT LeftUpLeg
		{
			OFFSET 1.800000 -1.400000 0.085000
			CHANNELS 3 Zrotation Yrotation Xrotation
			JOINT LeftLeg
			{
				OFFSET 2.215000 -6.000000 0.000000
				CHANNELS 3 Zrotation Yrotation Xrotation
				JOINT LeftFoot
				{
					OFFSET 2.500000 -6.900000 0.000000
					CHANNELS 3 Zrotation Yrotation Xrotation
					JOINT LeftToeBase
					{
						OFFSET 0.200000 -0.500000 1.950000
						CHANNELS 3 Zrotation Yrotation Xrotation
						End Site
						{
							OFFSET 0.000000 0.000000 0.000000
						}
					}
				}
			}
		}
	}
	JOINT RHipJoint
	{
		OFFSET 0.000000 0.000000 0.000000
		CHANNELS 3 Zrotation Yrotation Xrotation
		JOINT RightUpLeg
		{
			OFFSET -1.800000 -1.400000 0.085000
			CHANNELS 3 Zrotation Yrotation Xrotation
			JOINT RightLeg
			{
				OFFSET -2.215000 -6.000000 0.000000
				CHANNELS 3 Zrotation Yrotation Xrotation
				JOINT RightFoot
				{
					OFFSET -2.500000 -6.900000 0.000000
					CHANNELS 3 Zrotation Yrotation Xrotation
					JOINT RightToeBase
					{
						OFFSET -0.200000 -0.500000 1.950000
						CHANNELS 3 Zrotation Yrotation Xrotation
						End Site
						{
							OFFSET 0.000000 0.000000 0.000000
						}
					}
				}
			}
		}
	}
	JOINT LowerBack
	{
		OFFSET 0.000000 0.000000 0.000000
		CHANNELS 3 Zrotation Yrotation Xrotation
		JOINT Spine
		{
			OFFSET -0.087000 1.940000 -0.288900
			CHANNELS 3 Zrotation Yrotation Xrotation
			JOINT Spine1
			{
				OFFSET 0.000000 1.950000 0.060000
				CHANNELS 3 Zrotation Yrotation Xrotation
				JOINT Neck
				{
					OFFSET 0.000000 0.000000 0.000000
					CHANNELS 3 Zrotation Yrotation Xrotation
					JOINT Neck1
					{
						OFFSET 0.000000 1.600000 0.340000
						CHANNELS 3 Zrotation Yrotation Xrotation
						JOINT Head
						{
							OFFSET 0.000000 1.667000 -0.240000
							CHANNELS 3 Zrotation Yrotation Xrotation
							End Site
							{
								OFFSET 0.000000 0.000000 0.000000
							}
						}
					}
				}
				JOINT LeftShoulder
				{
					OFFSET 0.000000 0.000000 0.000000
					CHANNELS 3 Zrotation Yrotation Xrotation
					JOINT LeftArm
					{
						OFFSET 2.700000 1.550000 -0.730000
						CHANNELS 3 Zrotation Yrotation Xrotation
						JOINT LeftForeArm
						{
							OFFSET 5.450000 0.000000 0.000000
							CHANNELS 3 Zrotation Yrotation Xrotation
							JOINT LeftHand
							{
								OFFSET 3.450000 0.000000 0.000000
								CHANNELS 3 Zrotation Yrotation Xrotation
								JOINT LeftHandIndex1
								{
									OFFSET 0.750000 0.000000 0.000000
									CHANNELS 3 Zrotation Yrotation Xrotation
									End Site
									{
										OFFSET 0.000000 0.000000 0.000000
									}
								}
							}
						}
					}
				}
				JOINT RightShoulder
				{
					OFFSET 0.000000 0.000000 0.000000
					CHANNELS 3 Zrotation Yrotation Xrotation
					JOINT RightArm
					{
						OFFSET -2.700000 1.550000 -0.730000
						CHANNELS 3 Zrotation Yrotation Xrotation
						JOINT RightForeArm
						{
							OFFSET -5.450000 0.000000 0.000000
							CHANNELS 3 Zrotation Yrotation Xrotation
							JOINT RightHand
							{
								OFFSET -3.450000 0.000000 0.000000
								CHANNELS 3 Zrotation Yrotation Xrotation
								JOINT RightHandIndex1
								{
									OFFSET -0.750000 0.000000 0.000000
									CHANNELS 3 Zrotation Yrotation Xrotation
									End Site
									{
										OFFSET 0.000000 0.000000 0.000000
									}
								}
							}
						}
					}
				}
			}
		}
	}
}
MOTION
Frames: 7
Frame Time: 0.016667
-0.479060 17.242600 -3.631060 -3.845605 9.933929 -13.470787 -14.846855 13.372947 2.812289 6.091603 -0.353974 -5.905800 -8.245768 6.972630 16.830604 -0.148935 4.603253 3.145970 0.421250 0.235160 0.055170 18.360901 -11.641994 3.101040 -3.288139 2.867420 -6.267951 13.566080 -10.665959 31.275613 -0.926273 -6.077001 2.442422 0.048310 0.199000 0.067720 -4.459503 0.038695 -7.626494 16.374293 -12.093314 44.185884 -26.888394 -2.987548 15.222716 16.978769 -11.181367 -12.870691 -18.350307 9.949360 33.177686 6.803270 -3.448690 -24.843010 -14.124154 -2.382711 -1.063404 -47.693684 -14.556443 -13.367144 25.764894 -82.037032 -29.014819 -3.149937 2.885962 0.576760 -0.136960 -0.035560 0.159530 -18.780646 16.457285 12.816257 41.021279 20.251009 -12.920188 -108.936247 57.022762 -93.116985 1.884970 -0.813298 -0.059270 0.360200 0.099870 -0.096800 
-0.469040 17.232090 -3.620930 -3.862940 10.485527 -13.489782 -15.021260 13.722907 2.949733 6.829614 -0.223779 -5.643224 -9.308817 7.205743 15.783057 -0.063494 4.740255 3.101301 0.404120 0.198560 0.041080 18.181389 -11.236353 3.067828 -3.157918 3.295256 -6.290189 13.886339 -10.740545 31.853230 -0.924204 -6.082920 2.447008 0.008650 0.185970 0.066440 -3.989069 -1.188168 -7.714979 13.923048 -12.211929 46.216375 -26.870340 -3.413525 11.176646 18.871182 -12.641419 -12.903748 -21.684159 11.010277 33.324982 6.693630 -4.054930 -24.435660 -18.749411 0.886043 -2.668776 -46.567639 -12.342049 -12.539983 4.932853 -76.729887 -10.308363 -3.125889 3.253434 0.579900 -0.161520 -0.036710 0.156390 -18.574365 15.402177 12.005172 34.061400 17.807006 -14.962619 -97.893515 56.005366 -73.416906 1.670331 -0.662605 -0.043670 0.336500 0.102050 -0.087670 
-0.458670 17.222670 -3.610310 -4.074837 11.109703 -13.360429 -15.153141 13.966022 3.049835 7.582208 -0.133583 -5.569832 -10.208311 7.357013 14.814284 -0.019449 4.856367 3.060696 0.392100 0.172100 0.035290 18.054657 -10.905246 3.051382 -2.938450 3.713447 -6.429309 14.309439 -10.840372 32.231876 -0.926956 -6.093603 2.443799 -0.012000 0.179690 0.064950 -3.644176 -2.123571 -7.808296 12.460224 -12.162909 47.395249 -26.615162 -3.466263 7.582928 20.150170 -13.422144 -12.693129 -23.774774 11.326586 33.851992 6.574550 -4.628810 -23.742800 -22.674973 2.802629 -3.708637 -45.291363 -10.218293 -12.607533 -2.572395 -71.461886 -3.859485 -3.092513 3.337000 0.589410 -0.173350 -0.036700 0.151490 -17.688789 14.816087 11.042206 26.776999 14.610754 -16.946708 -82.971671 55.798868 -53.447756 1.485146 -0.822154 -0.042610 0.326340 0.106840 -0.087640 
-0.449740 17.212770 -3.599590 -4.276839 11.851113 -13.205200 -15.228910 14.076097 3.113440 8.136859 -0.078236 -5.459667 -10.920315 7.425205 13.917016 0.002562 4.923959 3.031476 0.396960 0.174020 0.041610 17.987674 -10.697484 3.048652 -2.891366 4.072111 -6.592996 14.856864 -10.985832 32.448880 -0.937495 -6.128620 2.429208 -0.010390 0.169220 0.061030 -3.458101 -2.644427 -7.877801 11.857726 -12.050870 47.843750 -26.411976 -3.354306 5.021808 20.758986 -13.677935 -12.325758 -24.613001 11.153603 34.401435 6.532220 -5.018270 -23.011670 -25.538307 3.764196 -4.255293 -44.299451 -8.412021 -13.010375 -5.433755 -66.927337 -1.627220 -3.059868 3.369295 0.591310 -0.178960 -0.034010 0.148680 -16.384859 14.356297 10.296302 19.563566 11.844058 -16.967756 -66.604053 52.793613 -36.150379 1.555089 -1.288257 -0.040280 0.320500 0.104120 -0.091270 
-0.442880 17.204330 -3.589480 -4.432457 12.613180 -13.152915 -15.250636 14.067392 3.148496 8.562093 -0.037887 -5.166387 -11.541670 7.451119 13.082330 -0.009655 4.989384 3.004172 0.401830 0.173110 0.048480 17.974164 -10.608110 3.058895 -3.049074 4.372283 -6.651146 15.504538 -11.188506 32.542533 -0.955353 -6.202017 2.396229 0.000300 0.168720 0.060270 -3.421044 -2.783210 -7.921719 11.923495 -12.016071 47.606438 -26.459183 -3.183349 4.070246 20.839053 -13.475972 -12.200560 -24.512635 10.607731 34.988679 6.595870 -5.370020 -22.316810 -27.287502 3.567960 -4.318390 -43.660099 -6.963333 -13.834732 -5.891175 -63.102827 -1.471114 -3.037457 3.369705 0.604940 -0.175230 -0.035410 0.143130 -14.962173 14.385089 10.177454 12.797746 9.585503 -15.547127 -53.426868 46.441256 -23.666294 1.723653 -1.628651 -0.052650 0.324540 0.111660 -0.103730 
-0.436970 17.198000 -3.580970 -4.596942 13.407235 -13.264955 -15.229381 13.975547 3.158824 8.889410 -0.009762 -4.680183 -12.000965 7.429441 12.301397 -0.019689 5.021859 2.989931 0.420330 0.186580 0.072500 18.001087 -10.614803 3.081015 -3.314701 4.588237 -6.557320 16.203251 -11.410808 32.513315 -0.982876 -6.286286 2.359597 0.015580 0.158540 0.059110 -3.503496 -2.625181 -7.944653 12.522886 -12.149077 47.101055 -26.767331 -3.049508 4.158450 20.530213 -13.009464 -12.218495 -23.809729 9.883377 35.632727 6.978650 -5.653150 -21.984380 -28.361727 2.778991 -4.075275 -43.187952 -5.876812 -14.790529 -5.638502 -60.061597 -1.874689 -3.007231 3.369133 0.618020 -0.176830 -0.030270 0.136640 -13.366608 14.602988 10.463504 6.644857 7.666108 -13.552681 -43.780375 38.968654 -15.353829 1.876317 -1.781460 -0.057560 0.325740 0.107460 -0.118350 
-0.433090 17.192480 -3.571720 -4.739734 14.186262 -13.339240 -15.180981 13.833040 3.151195 9.080244 -0.002486 -4.202414 -12.296563 7.363505 11.594910 -0.040365 5.024540 2.985092 0.427610 0.191700 0.088180 18.052961 -10.683455 3.111956 -3.649121 4.765106 -6.511529 16.916047 -11.635919 32.404250 -1.007872 -6.370431 2.322398 0.027270 0.151390 0.056210 -3.661652 -2.275477 -7.957807 13.466209 -12.359986 46.314278 -27.279425 -2.904377 4.650535 19.986998 -12.364312 -12.275496 -22.664680 9.125569 36.443184 7.367510 -5.796940 -21.786600 -29.061682 1.815198 -3.647622 -42.729425 -4.907274 -15.685724 -5.282172 -57.763667 -2.320803 -2.980748 3.366595 0.633240 -0.177000 -0.025150 0.127320 -11.672316 14.775499 10.927970 1.425946 6.163968 -11.385770 -36.617672 31.834513 -9.968970 1.989710 -1.804133 -0.068060 0.330300 0.109900 -0.133010 
